<?xml version="1.0" encoding="utf-8" ?>
<svg xmlns="http://www.w3.org/2000/svg" xmlns:xlink="http://www.w3.org/1999/xlink" width="1024" height="1024">
	<path fill="#002D34" transform="scale(2 2)" d="M368.427 75.6058C369.848 75.3206 371.674 75.4137 373.141 75.4061C382.3 75.3583 391.801 76.9706 400.328 80.3435C416.768 86.8461 431.176 100.277 438.116 116.636C445.456 133.935 446.223 154.45 439.087 171.968Q438.53 173.353 437.915 174.712Q437.301 176.072 436.629 177.405Q435.958 178.738 435.231 180.041Q434.503 181.344 433.722 182.616Q432.94 183.887 432.106 185.124Q431.272 186.362 430.386 187.563Q429.5 188.764 428.565 189.927Q427.629 191.089 426.645 192.211Q425.661 193.333 424.631 194.413Q423.601 195.493 422.526 196.528Q421.451 197.563 420.333 198.552Q419.216 199.541 418.058 200.482Q416.899 201.423 415.702 202.315Q414.505 203.206 413.272 204.046Q412.038 204.886 410.771 205.674Q409.503 206.461 408.203 207.194C403.226 209.953 397.842 212.052 392.598 214.243C393.035 224.381 392.734 234.63 392.734 244.78L392.737 299.859L392.743 373.542C392.745 386.872 392.974 400.229 392.675 413.554C395.215 413.428 397.85 413.696 400.4 413.728Q408.406 413.806 416.412 413.748C422.874 413.708 429.517 412.884 435.947 413.426C438.08 413.606 440.683 413.772 442.341 415.267C443.906 416.679 444.741 418.802 444.79 420.889C444.827 422.488 444.285 423.831 443.149 424.957C441.253 426.835 438.507 427.37 435.935 427.529C432.268 427.756 428.514 427.534 424.838 427.507L405.799 427.491L341.675 427.492L141.875 427.498L99.4784 427.49C91.5618 427.525 83.2545 428.146 75.3788 427.38C73.6213 427.209 71.1511 426.856 69.8299 425.622C68.581 424.455 68.0195 422.546 67.9537 420.886C67.8866 419.193 68.2626 417.417 69.5063 416.19C71.8491 413.878 77.2568 413.826 80.374 413.666C88.9683 413.223 97.6436 413.731 106.25 413.737L161.833 413.743L355.175 413.77C354.842 411.099 354.989 408.275 354.985 405.582Q354.996 397.717 355.088 389.852L355.129 346.844L355.147 260.645C355.143 245.144 354.696 229.59 355.237 214.099C346.052 212.437 337.024 207.303 329.878 201.382C314.816 188.902 304.691 172.239 302.875 152.55Q302.705 150.786 302.623 149.015Q302.542 147.245 302.548 145.472Q302.554 143.7 302.649 141.93Q302.743 140.16 302.925 138.397Q303.108 136.634 303.377 134.882Q303.647 133.13 304.004 131.394Q304.36 129.657 304.803 127.941Q305.245 126.225 305.773 124.533Q306.3 122.84 306.911 121.176Q307.521 119.512 308.214 117.881Q308.907 116.249 309.68 114.654Q310.453 113.059 311.304 111.505Q312.156 109.95 313.083 108.44Q314.011 106.93 315.012 105.467Q316.014 104.005 317.087 102.594Q318.16 101.183 319.302 99.8277C331.909 84.7562 349.197 77.3527 368.427 75.6058ZM371.932 88.855C355.332 90.2182 342.052 94.6876 330.963 107.731C320.2 120.392 315.378 136.42 316.786 152.936C318.052 167.793 326.408 180.495 337.601 189.898C348.071 198.694 361.741 202.314 375.197 202.313C389.751 202.014 404.694 195.313 414.804 184.849C425.423 173.858 430.68 158.669 430.324 143.501C429.98 128.82 423.082 114.64 412.437 104.628C402.464 95.2477 388.05 88.2974 374.127 88.7353C373.416 88.7576 372.632 88.7457 371.932 88.855ZM371.901 216.358C370.772 216.396 369.628 216.476 368.5 216.411L368.543 413.593C371.329 413.514 374.098 413.804 376.882 413.755L379.158 413.683C379.782 411.582 379.351 403.685 379.353 401.102L379.362 369.789L379.39 272.048C379.39 253.453 379.217 234.842 379.454 216.248Q375.677 216.279 371.901 216.358Z"/>
	<path fill="#002D34" transform="scale(2 2)" d="M344.653 116.851C348.438 116.394 352.569 116.831 356.375 116.943Q363.673 117.11 370.972 117.093Q380.24 117.115 389.506 116.955C394.4 116.844 399.433 116.47 404.316 116.872C405.893 117.002 407.574 117.409 408.856 118.379C410.522 119.639 411.072 122.007 411.343 123.974C411.879 127.864 411.656 131.849 411.769 135.769C411.876 139.507 412.431 143.312 411.887 147.037C411.641 148.719 411.119 150.417 410.033 151.754C408.369 153.801 406.275 154.178 403.812 154.482C397.787 154.545 391.801 154.223 385.782 154.135C379.411 154.043 373.008 154.173 366.633 154.179C361.741 154.183 356.841 154.146 351.951 154.25C349.202 154.308 346.409 154.592 343.664 154.464C342.232 154.398 339.869 154.188 338.662 153.413C337.473 152.649 336.978 150.261 336.732 148.964C335.733 143.678 334.705 123.374 337.66 119.54C339.369 117.323 342.093 117.093 344.653 116.851ZM349.825 130.506C349.483 133.768 349.561 137.257 349.984 140.512C354.226 141.063 358.93 140.646 363.232 140.692L398.115 140.747Q398.408 135.611 398.127 130.475C382.036 130.567 365.907 130.209 349.825 130.506Z"/>
	<path fill="#002D34" transform="scale(2 2)" d="M107.668 130.107C110.04 129.848 112.604 130 114.992 130.003L128.484 130.028L171.269 130.033L226.575 129.99C236.999 129.987 247.756 129.42 258.122 130.433C264.369 131.043 270.337 132.395 275.79 135.598C284.581 140.763 290.521 149.459 293.039 159.247C295.934 170.503 294.597 187.825 294.538 199.787L294.527 245.515L294.559 314.156C294.586 327.141 295.026 340.171 294.506 353.149C294.413 355.469 294.333 359.804 292.844 361.68C290.306 364.876 278.599 363.807 274.666 363.867C274.328 370.701 274.786 377.791 274.836 384.652C274.857 387.557 275.034 390.675 274.558 393.544C274.341 394.859 273.98 396.041 273.095 397.065C270.79 399.733 266.331 400.273 262.997 400.446C258.329 400.689 253.681 400.009 249.017 399.942C245.091 399.885 240.782 400.542 236.912 399.913C235.764 399.726 234.667 399.291 233.822 398.471C231.645 396.357 231.985 391.033 231.952 388.167L232.001 363.759C197.864 363.332 163.652 363.561 129.512 363.75C129.169 370.55 129.602 377.56 129.677 384.372C129.712 387.538 129.945 390.905 129.421 394.038C129.234 395.151 128.987 396.205 128.214 397.065C125.442 400.155 117.57 400.058 113.544 400.178C108.314 400.333 97.6559 400.823 92.7556 399.803C91.3415 399.508 89.9611 398.962 88.9281 397.92C87.8108 396.793 87.2756 395.249 87.053 393.706C86.4746 389.698 86.9647 385.341 87.035 381.286L87.2083 363.727C82.8133 363.753 72.9759 364.532 69.6137 361.579C68.415 360.526 68.3559 357.546 68.2845 356.012C68.0668 351.333 68.3021 346.575 68.3397 341.89L68.3669 319.377L68.2716 240.454L68.2379 191.753C68.2325 182.073 67.5469 171.784 69.0019 162.208C70.1717 154.509 73.1328 147.741 78.4109 141.972C86.4548 133.18 96.1231 130.679 107.668 130.107ZM145.942 275.122Q126.204 275.296 106.466 275.231C98.4464 275.235 90.3976 275.476 82.3831 275.24Q81.6452 312.623 82.2693 350.008L218.625 349.998L280.971 350.037C281.256 338.087 280.934 326.121 280.848 314.17C280.798 307.182 280.99 300.198 280.999 293.211C281.007 287.175 280.504 281.216 280.842 275.178L145.942 275.122ZM115.233 210.374C114.551 211.864 115.297 255.453 114.878 261.439Q124.559 261.538 134.241 261.485C138.266 261.476 142.306 261.354 146.324 261.637C144.409 258.139 142.783 255.559 138.706 254.416C135.651 253.56 132.277 253.887 129.29 252.829C128.088 250.065 127.405 246.597 128.581 243.688C129.182 242.202 130.272 241.149 131.744 240.526C135.396 238.982 140.482 240.383 143.963 241.901C150.333 244.679 155.989 250.493 158.481 256.995C159.032 258.434 159.437 259.905 159.761 261.409Q183.568 261.608 207.375 261.526L234.503 261.533C238.713 261.54 243.027 261.865 247.218 261.585C246.849 258.226 247.03 254.754 247.03 251.374L247.031 234.993L247.006 220.026C246.999 216.865 246.835 213.551 247.176 210.41C235.599 210.804 223.952 210.496 212.367 210.491L149.41 210.5C141.716 210.501 134.035 210.276 126.344 210.228C122.679 210.205 118.879 210.031 115.233 210.374ZM92.9415 177.872C89.46 177.911 85.9388 178.063 82.4609 177.95C81.7363 184.59 82.4463 193.144 82.4218 200.011L82.3084 240.032C82.3221 247.184 82.5766 254.393 82.4219 261.539C88.7518 261.381 95.3027 261.218 101.616 261.602C100.949 250.081 101.572 238.339 101.499 226.793C101.454 219.873 100.494 212.651 101.239 205.782C101.472 203.635 101.974 201.49 103.461 199.845C106.724 196.236 113.749 196.706 118.3 196.587C126.666 196.367 135.072 196.749 143.444 196.748L205.6 196.746L240.699 196.77C245.059 196.764 249.636 196.101 253.958 196.448C255.716 196.589 257.415 196.997 258.72 198.258C260.538 200.015 260.914 203.02 260.984 205.438C261.481 215.489 261.24 225.622 261.249 235.689C261.257 244.217 261.595 252.87 260.957 261.371C267.593 261.612 274.385 261.866 281.017 261.63L280.991 202.956C280.989 194.625 280.665 186.269 280.796 177.947C259.133 177.454 237.406 177.769 215.738 177.768L92.9415 177.872ZM117.99 143.618C108.317 143.845 95.5452 143.337 88.3342 150.939C85.0738 154.376 83.1358 159.679 82.2206 164.24C90.5382 164.613 98.8658 164.489 107.189 164.472L139.57 164.465L245.375 164.474Q263.041 164.588 280.704 164.239C279.138 157.773 276.258 151.868 270.442 148.266C265.863 145.429 260.143 144.451 254.861 143.972C247.207 143.278 239.396 143.575 231.716 143.625L201.878 143.668L150.016 143.662C139.345 143.631 128.659 143.4 117.99 143.618ZM100.97 363.915C100.3 366.45 100.791 382.312 100.834 386.182C104.328 386.951 111.625 386.332 115.441 386.214C116.266 384.978 115.706 367.032 115.736 363.735C110.877 363.677 105.808 363.409 100.97 363.915ZM245.708 363.736C245.545 371.185 245.516 378.773 245.699 386.221L260.513 386.228Q260.452 374.994 260.547 363.76C255.602 363.666 250.646 363.849 245.708 363.736Z"/>
	<path fill="#002D34" transform="scale(2 2)" d="M232.818 292.104C232.887 292.096 232.955 292.087 233.024 292.081C237.825 291.68 242.882 292.124 247.707 292.161C252.774 292.2 257.851 291.836 262.907 292.312C264.743 292.484 268.398 292.8 269.8 294.078C271.295 295.441 271.607 298.885 271.692 300.845C271.885 305.243 272.886 323.966 269.862 326.936C267.859 328.905 264.014 328.558 261.438 328.542Q252.812 328.47 244.185 328.528C239.497 328.593 234.583 328.996 229.933 328.298C228.012 328.01 226.443 327.533 224.773 326.505C223.493 324.277 223.118 322.086 222.897 319.559C222.512 315.15 221.858 297.867 224.649 294.744C226.654 292.501 230.021 292.291 232.818 292.104ZM243.886 305.623L236.739 305.825C236.508 308.876 236.681 311.978 236.74 315.035Q243.703 314.554 250.671 314.955C252.999 315.033 255.33 315.089 257.653 315.276C258.12 312.076 258.093 308.955 257.982 305.729C253.287 305.686 248.581 305.576 243.886 305.623Z"/>
	<path fill="#002D34" transform="scale(2 2)" d="M102.632 292.105C106.673 291.795 110.864 292.021 114.924 292.014C121.375 292.002 128.359 291.572 134.731 292.681C136.053 292.912 137.296 293.19 138.326 294.101C140.363 295.905 140.741 298.573 140.858 301.154C140.985 303.966 140.725 306.806 140.746 309.622C140.784 314.629 142.161 322.187 138.398 326.117C136.308 328.299 133.617 328.528 130.781 328.544C125.135 328.528 119.475 328.453 113.831 328.562C109.429 328.646 104.929 329.015 100.534 328.663C98.7873 328.523 95.7178 328.24 94.293 327.181C92.5389 325.878 91.9725 322.739 91.8193 320.702C91.4685 316.034 90.7111 297.508 93.6728 294.381C95.7137 292.227 99.9011 292.288 102.632 292.105ZM112.382 305.623L105.594 305.824C105.238 308.679 105.031 312.157 105.468 315.009Q113.057 314.705 120.646 314.996C122.856 315.012 125.035 315 127.229 315.307C127.309 315.318 127.39 315.328 127.47 315.338C127.597 312.151 127.829 308.934 127.669 305.745Q120.026 305.565 112.382 305.623Z"/>
</svg>
