<?xml version="1.0" encoding="utf-8" ?>
<svg xmlns="http://www.w3.org/2000/svg" xmlns:xlink="http://www.w3.org/1999/xlink" width="1024" height="1024">
	<path fill="#71AAD8" transform="scale(2 2)" d="M393.079 237.855L393.079 237.855C393.142 239.915 393.171 241.951 393.079 244.01L415.495 244.01L415.495 342.453C415.496 358.846 415.689 375.259 415.495 391.649L393.079 391.649C393.355 387.641 393.104 383.516 393.094 379.492L393.077 251.112C393.072 246.702 392.858 242.257 393.079 237.855Z"/>
	<path fill="#6A7A86" transform="scale(2 2)" d="M415.495 391.649L449.386 391.644C453.615 391.635 460.878 391.172 464.733 391.688C470.694 392.486 473.013 399.661 468.362 403.803C464.044 407.649 439.061 405.939 432.565 405.938L65.8903 405.947C60.3147 405.951 47.1954 407.901 43.2489 403.318C39.3926 398.841 42.5051 392.284 48.0458 391.647C52.1998 391.17 56.8395 391.636 61.0485 391.646L88.8325 391.649C93.5463 392.02 122.79 392.476 127.286 391.649L255.252 391.649C268.84 392.015 282.538 391.649 296.137 391.649L393.079 391.649L415.495 391.649Z"/>
	<path fill="#71AAD8" transform="scale(2 2)" d="M58.1959 199.979C58.2068 179.681 59.8484 164.145 84.8713 164.013L280.659 164.011C310.62 163.997 327.935 164.536 327.783 199.979L320.741 199.979L63.6372 199.979L63.6552 223.169C63.6582 226.825 63.8912 230.646 63.6372 234.287C63.5089 222.856 63.6278 211.411 63.6372 199.979L58.1959 199.979Z"/>
	<path fill="#71AAD8" transform="scale(2 2)" d="M355.003 102.205L422.161 102.199C433.194 102.198 444.385 101.806 455.403 102.205C455.2 106.877 455.396 111.573 455.4 116.25L455.403 227.765L415.495 227.765C415.511 231.465 415.99 239.737 415.495 242.857L415.495 244.01L393.079 244.01C393.171 241.951 393.142 239.915 393.079 237.855L393.079 237.855C393.045 234.491 393.064 231.129 393.079 227.765L355.003 227.765C355.31 213.861 354.998 199.879 354.996 185.967L355.003 102.205Z"/>
	<path fill="#6A7A86" transform="scale(2 2)" d="M393.079 227.765L415.495 227.765C415.476 232.792 415.378 237.832 415.495 242.857L415.495 244.01L393.079 244.01C393.171 241.951 393.142 239.915 393.079 237.855C393.156 234.488 393.263 231.13 393.079 227.765Z"/>
	<path fill="#6A7A86" transform="scale(2 2)" d="M423.087 182.782C439.053 181.812 442.229 203.396 426.984 206.612C410.813 208.348 407.506 186.085 423.087 182.782Z"/>
	<path fill="#6A7A86" transform="scale(2 2)" d="M384.383 182.782L384.629 182.753C398.485 181.243 400.512 205.578 384.383 206.612C366.131 205.597 367.977 182.327 384.383 182.782Z"/>
	<path fill="#6A7A86" transform="scale(2 2)" d="M374.724 125.743L432.011 125.743L432.003 163.298C432.003 165.297 432.638 173.96 432.011 175.129L374.724 175.129L374.756 139.84C374.769 135.344 374.177 130.137 374.724 125.743Z"/>
	<path fill="#6A7A86" transform="scale(2 2)" d="M63.6372 199.979L320.741 199.979L320.741 296.485L320.741 359.448C315.999 359.816 300.694 360.023 296.137 359.448C295.634 364.405 296.162 369.794 296.137 374.799L296.137 391.649C282.538 391.649 268.84 392.015 255.252 391.649L127.286 391.649C122.79 392.476 93.5463 392.02 88.8325 391.649L88.8325 359.448C85.5981 359.447 64.8239 359.813 63.6372 359.448C63.2447 355.56 63.6188 351.265 63.6231 347.335L63.6372 234.287C63.8912 230.646 63.6582 226.825 63.6552 223.169L63.6372 199.979ZM159.539 247.408C158.678 261.55 159.056 281.596 159.539 295.781L152.493 295.781C134.38 295.775 116.239 295.545 98.1291 295.781C88.5777 296.695 73.6334 295.915 63.6372 295.781L63.627 345.101C63.6267 348.046 64.1927 357.298 63.6372 359.448C64.8239 359.813 85.5981 359.447 88.8325 359.448L88.8325 391.649C93.5463 392.02 122.79 392.476 127.286 391.649L255.252 391.649C268.84 392.015 282.538 391.649 296.137 391.649L296.137 374.799C296.162 369.794 295.634 364.405 296.137 359.448C300.694 360.023 315.999 359.816 320.741 359.448L320.741 296.485C314.079 294.403 303.227 296.762 296.137 295.781C274.526 295.462 252.86 295.837 231.243 295.781L224.247 295.781L159.539 295.781L159.521 263.262C159.524 258.017 159.865 252.634 159.539 247.408ZM159.539 232.443C159.492 237.42 159.705 242.439 159.539 247.408C159.865 252.634 159.524 258.017 159.521 263.262L159.539 295.781L224.247 295.781L231.243 295.781L231.243 231.405C229.006 231.834 226.493 231.722 224.247 231.405L177.526 231.413C174.626 231.413 160.096 230.246 159.539 232.443ZM88.8325 231.405L88.8325 295.781C91.9137 295.773 95.0548 295.637 98.1291 295.781C116.239 295.545 134.38 295.775 152.493 295.781L159.539 295.781C159.056 281.596 158.678 261.55 159.539 247.408C159.705 242.439 159.492 237.42 159.539 232.443C159.114 230.856 153.988 231.533 152.493 231.405C145.321 231.235 138.119 231.413 130.943 231.416L88.8325 231.405ZM231.243 231.405L231.243 295.781C252.86 295.837 274.526 295.462 296.137 295.781C296.32 293.516 296.153 291.124 296.148 288.841L296.137 231.405L231.243 231.405Z"/>
	<path fill="#3D4D5D" transform="scale(2 2)" d="M152.493 231.405C153.988 231.533 159.114 230.856 159.539 232.443C159.492 237.42 159.705 242.439 159.539 247.408C158.678 261.55 159.056 281.596 159.539 295.781L152.493 295.781L152.493 231.405Z"/>
	<path fill="#3D4D5D" transform="scale(2 2)" d="M224.247 231.405C226.493 231.722 229.006 231.834 231.243 231.405L231.243 295.781L224.247 295.781L224.247 231.405Z"/>
	<path fill="#6A7A86" transform="scale(2 2)" d="M159.539 247.408C159.865 252.634 159.524 258.017 159.521 263.262L159.539 295.781L224.247 295.781L231.243 295.781C252.86 295.837 274.526 295.462 296.137 295.781C303.227 296.762 314.079 294.403 320.741 296.485L320.741 359.448C315.999 359.816 300.694 360.023 296.137 359.448C295.634 364.405 296.162 369.794 296.137 374.799L296.137 391.649C282.538 391.649 268.84 392.015 255.252 391.649L127.286 391.649C122.79 392.476 93.5463 392.02 88.8325 391.649L88.8325 359.448C85.5981 359.447 64.8239 359.813 63.6372 359.448C64.1927 357.298 63.6267 348.046 63.627 345.101L63.6372 295.781C73.6334 295.915 88.5777 296.695 98.1291 295.781C116.239 295.545 134.38 295.775 152.493 295.781L159.539 295.781C159.056 281.596 158.678 261.55 159.539 247.408ZM127.286 359.448C127.289 362.29 127.006 390.962 127.286 391.649L255.252 391.649L255.252 374.799L255.252 359.448C241.055 359.736 226.791 359.446 212.589 359.445L127.286 359.448Z"/>
	<path fill="#71AAD8" transform="scale(2 2)" d="M262.568 320.676C269.787 321.25 290.534 319.518 295.858 321.455C301.604 323.546 300.42 330.63 295.308 332.51C286.578 332.865 272.91 333.1 264.221 332.58C256.759 332.133 255.63 323.278 262.568 320.676Z"/>
	<path fill="#71AAD8" transform="scale(2 2)" d="M87.1349 320.676C94.4903 320.583 101.852 320.675 109.209 320.659C114.029 320.648 126.393 318.382 126.721 325.931C126.838 328.643 125.512 330.59 123.801 332.51L120.811 332.51L98.1617 332.518C92.8922 332.523 82.1646 334.545 81.5317 326.713C81.2822 323.625 84.2341 320.927 87.1349 320.676Z"/>
	<path fill="#6A7A86" transform="scale(2 2)" d="M296.137 374.799L296.137 391.649C282.538 391.649 268.84 392.015 255.252 391.649L255.252 374.799C267.946 374.219 283.397 374.492 296.137 374.799Z"/>
	<path fill="#3D4D5D" transform="scale(2 2)" d="M147.843 321.376C152.958 321.181 158.128 321.368 163.25 321.372L224.553 321.406C227.743 321.423 230.972 321.159 234.152 321.275C241.741 321.55 242.714 331.164 235.813 333.13C231.166 333.344 226.421 333.141 221.762 333.139L163.852 333.131C159.983 333.135 148.982 334.131 145.709 332.494C140.993 330.135 141.946 322.513 147.843 321.376Z"/>
</svg>
